# xmcd
#
# Track frame offsets:
#	150
#	21731
#	39347
#	59570
#	75119
#	90080
#	99287
#	119830
#	138889
#	157931
#
# Disc length: 2500 seconds
#
# Revision: 1
# Processed by: cddbd v1.5.2PL0 Copyright (c) Steve Scherf et al.
# Submitted via: audiograbber 1.83.01
#
DISCID=7009c20a
DTITLE=Heather Hutchison - Charades
DYEAR=2007
DGENRE=
TTITLE0=Shards of Porcelain
TTITLE1=The One Thing I Can Promise
TTITLE2=Drifter
TTITLE3=Charades
TTITLE4=Hello
TTITLE5=Taxi Driver
TTITLE6=Taking Back My Life
TTITLE7=There`s a Reason
TTITLE8=You`re Gonna Fly
TTITLE9=Why
EXTD=
EXTT0=
EXTT1=
EXTT2=
EXTT3=
EXTT4=
EXTT5=
EXTT6=
EXTT7=
EXTT8=
EXTT9=
PLAYORDER=
